<svg width="50" height="50" viewBox="0 0 50 50" fill="none" xmlns="http://www.w3.org/2000/svg">
<g filter="url(#filter0_d_90_697)">
<path d="M18.7503 33.3327H31.2503V27.0827H27.0837V29.166H22.917V20.8327H27.0837V22.916H31.2503V16.666H18.7503V33.3327ZM25.0003 45.8327C22.1184 45.8327 19.41 45.2855 16.8753 44.191C14.3406 43.0966 12.1357 41.6125 10.2607 39.7389C8.38574 37.8639 6.90171 35.6591 5.80866 33.1243C4.7156 30.5896 4.16838 27.8813 4.16699 24.9994C4.16699 22.1174 4.71421 19.4091 5.80866 16.8744C6.9031 14.3396 8.38713 12.1348 10.2607 10.2598C12.1357 8.38477 14.3406 6.90074 16.8753 5.80768C19.41 4.71463 22.1184 4.1674 25.0003 4.16602C27.8823 4.16602 30.5906 4.71324 33.1253 5.80768C35.66 6.90213 37.8649 8.38616 39.7399 10.2598C41.6149 12.1348 43.0996 14.3396 44.1941 16.8744C45.2885 19.4091 45.8351 22.1174 45.8337 24.9994C45.8337 27.8813 45.2864 30.5896 44.192 33.1243C43.0975 35.6591 41.6135 37.8639 39.7399 39.7389C37.8649 41.6139 35.66 43.0987 33.1253 44.1931C30.5906 45.2875 27.8823 45.8341 25.0003 45.8327Z" fill="#95FF00"/>
</g>
<defs>
<filter id="filter0_d_90_697" x="4.16699" y="4.16602" width="41.6665" height="43.667" filterUnits="userSpaceOnUse" color-interpolation-filters="sRGB">
<feFlood flood-opacity="0" result="BackgroundImageFix"/>
<feColorMatrix in="SourceAlpha" type="matrix" values="0 0 0 0 0 0 0 0 0 0 0 0 0 0 0 0 0 0 127 0" result="hardAlpha"/>
<feOffset dy="2"/>
<feComposite in2="hardAlpha" operator="out"/>
<feColorMatrix type="matrix" values="0 0 0 0 0.0431373 0 0 0 0 0.0431373 0 0 0 0 0.0431373 0 0 0 0.64 0"/>
<feBlend mode="normal" in2="BackgroundImageFix" result="effect1_dropShadow_90_697"/>
<feBlend mode="normal" in="SourceGraphic" in2="effect1_dropShadow_90_697" result="shape"/>
</filter>
</defs>
</svg>
